<svg width="24" height="24" viewBox="0 0 24 24" fill="none" xmlns="http://www.w3.org/2000/svg">
<rect width="24" height="24" rx="8" fill="#5378DF"/>
<path d="M18.3185 6.06604C18.876 6.05882 19.4315 6.13285 19.967 6.28571C20.0437 6.30106 20.1156 6.33401 20.1769 6.3819C20.4117 6.52273 20.5797 6.75002 20.6437 7.01335C20.7078 7.27668 20.6625 7.55429 20.5179 7.78462C20.3226 8.07176 20.0311 8.10335 19.7236 8.10335H17.1744C17.3054 8.41961 17.3993 8.74958 17.4542 9.08683C17.5184 9.45437 17.5519 9.83771 17.6 10.2211V10.8772H19.6143C19.7661 10.8715 19.9181 10.882 20.0676 10.9088C20.4232 10.9734 20.6331 11.1643 20.6506 11.4989V12.4551C20.6345 12.7896 20.4232 12.982 20.0676 13.0466C19.9181 13.0733 19.7661 13.0839 19.6143 13.0782H17.5737V13.73C17.5242 14.1119 17.4921 14.4952 17.428 14.8613C17.3696 15.2033 17.2718 15.5376 17.1365 15.8577H19.7221C20.0297 15.8577 20.3212 15.8893 20.5165 16.1779C20.6612 16.4087 20.7065 16.6867 20.6425 16.9505C20.5785 17.2143 20.4104 17.4421 20.1754 17.5835C20.1144 17.6319 20.0432 17.6662 19.967 17.684C19.4292 17.8381 18.8713 17.9131 18.3112 17.9065L18.087 17.9111L17.6381 17.9195C15.7681 17.9525 13.9142 17.9597 12.503 17.9609L12.173 17.9611C12.1195 17.9611 12.0667 17.9611 12.0148 17.9611C10.12 17.9611 7.57664 17.9338 5.65564 17.895C5.09752 17.9016 4.5415 17.8266 4.00573 17.6725C3.92926 17.6566 3.85748 17.6237 3.79584 17.5763C3.56075 17.4358 3.39245 17.2085 3.32839 16.945C3.26434 16.6816 3.30985 16.4038 3.45479 16.1736C3.64864 15.8865 3.94014 15.8549 4.24767 15.8549H6.79979C6.6688 15.5386 6.57491 15.2086 6.51994 14.8714C6.45435 14.5038 6.42229 14.1205 6.37419 13.7372V13.0753H4.3599C4.20809 13.0811 4.05609 13.0705 3.90662 13.0437C3.55098 12.9805 3.3411 12.7896 3.32361 12.4536V11.4989C3.33964 11.1629 3.54952 10.9719 3.90662 10.9073C4.05993 10.8799 4.21587 10.8693 4.37156 10.8757H6.41209V10.2182C6.46018 9.83484 6.49225 9.45294 6.55784 9.08539C6.61483 8.74357 6.71268 8.4096 6.84934 8.09043H4.25205C3.94451 8.09043 3.65155 8.05741 3.4577 7.77026C3.31249 7.53977 3.26669 7.26172 3.33045 6.99783C3.39421 6.73393 3.56226 6.50602 3.7973 6.36468C3.85931 6.31704 3.93163 6.28412 4.00864 6.26848C4.54636 6.11729 5.10381 6.0452 5.66292 6.05456L5.88733 6.04997L6.33647 6.04156C8.20744 6.00864 10.0614 6.00137 11.4727 6.0002L11.9608 6C13.8556 6 16.399 6.02584 18.3185 6.06604ZM14.7957 13.0782L9.21396 13.0783C8.92066 13.0803 8.92294 13.1064 8.95254 13.4457C8.96359 13.784 9.00702 14.1205 9.08226 14.4507C9.20933 15.0288 9.66342 15.4828 10.2483 15.6165C10.7721 15.7521 11.3101 15.8272 11.8515 15.8405C12.4749 15.84 13.0957 15.7628 13.6997 15.6108C14.2837 15.4775 14.7376 15.0248 14.8657 14.4479C14.941 14.1176 14.9844 13.7811 14.9954 13.4428C15.0202 13.1327 15.0216 13.0896 14.7957 13.0782ZM12.1226 8.11053C11.5021 8.11202 10.8843 8.18967 10.2832 8.34168C9.6992 8.475 9.24531 8.9277 9.11724 9.50462C9.04326 9.83508 8.99984 10.1715 8.98752 10.5096C8.96128 10.8198 8.95837 10.8671 9.18428 10.8743L14.7675 10.8741C15.0608 10.8721 15.0585 10.846 15.0289 10.5068C15.0142 10.1679 14.9684 9.83103 14.8919 9.50032C14.7634 8.92277 14.3101 8.46896 13.7259 8.33307C13.2021 8.19775 12.664 8.12306 12.1226 8.11053Z" fill="white"/>
</svg>
