<svg width="24" height="24" viewBox="0 0 24 24" fill="none" xmlns="http://www.w3.org/2000/svg">
<rect width="24" height="24" rx="8" fill="#00EF8B"/>
<path d="M17.4114 9.36548H13.8344V12.9425H17.4114V9.36548Z" fill="white"/>
<path d="M10.2599 14.2827C10.2599 15.0242 9.65873 15.6253 8.91719 15.6253C8.17566 15.6253 7.57453 15.0242 7.57453 14.2827C7.57453 13.5411 8.17566 12.94 8.91719 12.94H10.2599V9.36548H8.91719C6.2015 9.36548 4 11.567 4 14.2827C4 16.9984 6.2015 19.1999 8.91719 19.1999C11.6329 19.1999 13.8344 16.9984 13.8344 14.2827V12.94H10.2599V14.2827Z" fill="white"/>
<path d="M15.1771 7.57706H19.2V4H15.1771C12.4625 4.00279 10.2627 6.20266 10.2599 8.91719V9.36559H13.8344V8.91719C13.8358 8.17665 14.4365 7.57706 15.1771 7.57706Z" fill="white"/>
<path d="M10.2599 12.94H13.8344V9.36548H10.2599V12.94Z" fill="#16FF99"/>
</svg>
